<svg id="lens-logo-vertical-inverted" xmlns="http://www.w3.org/2000/svg" width="57.082" height="79" viewBox="0 0 57.082 79">
  <path id="Path_90662" data-name="Path 90662" d="M1523.115,708.963h21.5l-4.957-21.135Z" transform="translate(-1497.397 -653.117)" fill="#3d90ce"/>
  <path id="Path_90663" data-name="Path 90663" d="M1448.834,714.015v12.068h22.6l9.449-12.068Z" transform="translate(-1448.834 -670.238)" fill="#3d90ce"/>
  <path id="Path_90664" data-name="Path 90664" d="M1537.6,603.159l25.114,12.224V591.073Z" transform="translate(-1506.867 -589.861)" fill="#3d90ce"/>
  <path id="Path_90665" data-name="Path 90665" d="M1577.232,683.721h6.1V656.127l-14.192-6.908Z" transform="translate(-1527.488 -627.876)" fill="#3d90ce"/>
  <path id="Path_90666" data-name="Path 90666" d="M1534.864,587.573h-31.277l-3.774,16.868Z" transform="translate(-1482.163 -587.573)" fill="#3d90ce"/>
  <path id="Path_90667" data-name="Path 90667" d="M1448.834,639.333v23.4h18.613Z" transform="translate(-1448.834 -621.412)" fill="#3d90ce"/>
  <path id="Path_90668" data-name="Path 90668" d="M1467.743,587.573h-18.908v13.976l12.318,15.487Z" transform="translate(-1448.835 -587.573)" fill="#3d90ce"/>
  <path id="Path_90669" data-name="Path 90669" d="M1448.938,787.437V772.826h2.752v12.211h7.8v2.4Z" transform="translate(-1448.902 -708.687)" fill="#fff"/>
  <path id="Path_90670" data-name="Path 90670" d="M1491.008,787.437V772.826h10.46v2.359h-7.707v3.528h4.748v2.359h-4.748v4.008h8.212v2.359Z" transform="translate(-1476.406 -708.687)" fill="#fff"/>
  <path id="Path_90671" data-name="Path 90671" d="M1546.738,787.435h-2.5l-6.652-9.226a8.926,8.926,0,0,1-.665-1.086,8.013,8.013,0,0,1,.069,1.086v9.226h-2.73V772.824h2.661l6.491,9.08a11.537,11.537,0,0,1,.665,1.108,9.061,9.061,0,0,1-.069-1.108v-9.081h2.73Z" transform="translate(-1504.683 -708.685)" fill="#fff"/>
  <path id="Path_90672" data-name="Path 90672" d="M1585.978,787.211a6.105,6.105,0,0,1-6.056-3.778l2.546-.856a3.937,3.937,0,0,0,3.6,2.255,3.442,3.442,0,0,0,2.008-.522,1.76,1.76,0,0,0,.069-2.818,9.166,9.166,0,0,0-2.764-1.169,10.167,10.167,0,0,1-3.843-1.8,3.522,3.522,0,0,1,.4-5.3c1.605-1.387,5.4-1.519,7.2-.261a4.236,4.236,0,0,1,1.789,2.265l-2.478.751a2.856,2.856,0,0,0-2.844-1.5,3,3,0,0,0-1.686.407,1.258,1.258,0,0,0-.138,2.056,6.721,6.721,0,0,0,2.6,1.108c1.711.577,3.529,1.09,4.611,2.6a4.152,4.152,0,0,1,.619,2.16C1591.629,785.82,1588.847,787.229,1585.978,787.211Z" transform="translate(-1534.536 -708.211)" fill="#fff"/>
</svg>
