<?xml version="1.0" encoding="utf-8"?>
<!-- Generator: Adobe Illustrator 26.0.3, SVG Export Plug-In . SVG Version: 6.00 Build 0)  -->
<svg version="1.0" id="katman_1" xmlns="http://www.w3.org/2000/svg" xmlns:xlink="http://www.w3.org/1999/xlink" x="0px" y="0px"
	 viewBox="0 0 600 450" style="enable-background:new 0 0 600 450;" xml:space="preserve">
<style type="text/css">
	.st0{fill:url(#SVGID_1_);}
</style>
<path d="M514.9,220.8c-1.7,12.7-6.9,20.3-14.2,20.9c-2.5,0-4.9-0.5-7.2-1.6c-2.2-1.1-4.2-2.7-5.7-4.6c5.4-3.8,10-8.6,13.4-14.2
	c3.4-5.6,5.6-11.9,6.5-18.4c-29.4,8.6-59.8,13.5-90.5,14.4c3.6,7.3,9,13.6,15.7,18.2c-11.8,13.3-18.1,30.6-17.8,48.3h12.4
	c-0.3-13.8,4.3-27.3,12.9-38.1c-1.9,12.6-3,25.4-3.5,38.1h22c0,0-4-16.5,2.5-16.5c6.6,0,2.5,16.5,2.5,16.5h22
	c-0.4-12.1-1.5-24.1-3.2-36c2.4,1.9,5.2,3.5,8.1,4.6c3.4,1.2,7,1.8,10.6,1.5c3.2-0.2,6.4-1.1,9.3-2.6c2.9-1.5,5.4-3.6,7.5-6.1
	c4.6-5.5,7.6-13.1,8.9-22.7L514.9,220.8L514.9,220.8z"/>
<linearGradient id="SVGID_1_" gradientUnits="userSpaceOnUse" x1="502.2148" y1="181.4377" x2="660.584" y2="181.4377" gradientTransform="matrix(1 0 0 -1 -120.9449 379.3622)">
	<stop  offset="8.199999e-02" style="stop-color:#99D2D0"/>
	<stop  offset="0.951" style="stop-color:#58509D"/>
</linearGradient>
<path class="st0" d="M463.6,217c43.7-7,77.7-21.2,76-31.7c-1.7-10.5-38.6-13.3-82.3-6.3c-43.7,7-77.7,21.2-76,31.7
	C383.1,221.1,419.9,224,463.6,217L463.6,217z"/>
<path d="M81.4,257.9c-9.5-1.3-10.3-3-10.3-5c0-1.7,1-4.5,7.8-4.5c7.7,0,9.4,3.1,10,5.5l0.1,0.4h10l-0.1-0.6
	c-0.3-3-2.5-12.8-19.6-12.8c-13.5,0-18.3,6.9-18.3,12.8c0,7.2,5.5,11.1,17.8,12.7c10.5,1.3,11.4,3.4,11.4,5.8c0,3.4-3.1,5.1-9.2,5.1
	c-6.4,0-10.3-2.2-11.6-6.5l-0.1-0.4H59.2l0.1,0.6c1.4,8.9,9.1,13.9,21.2,13.9c12.6,0,19.9-4.9,19.9-13.5
	C100.3,265.7,98,260.1,81.4,257.9z M133.8,241c-7.9,0-12.4,3.2-14.9,6.5c0-2-0.1-3.9-0.2-4.9l-0.1-0.5h-10l0,0.6
	c0.1,3.3,0.1,6.8,0.1,10.1v48.7H119v-22c1.7,1.9,3.8,3.4,6.1,4.3c2.3,1,4.9,1.4,7.4,1.2c12.1,0,21.2-9.7,21.2-22.6
	C153.6,250.1,145.1,241,133.8,241z M143.2,262.6c0,6.4-3.2,13.8-12.3,13.8c-7.6,0-12.2-5-12.2-13.3c0-8.7,4.5-13.7,12.4-13.7
	C139.5,249.4,143.2,256.1,143.2,262.6z M200.3,272.9v-17.1c0-9.8-6.5-14.8-19.4-14.8c-16.3,0-18.9,9.4-19.3,13.5l-0.1,0.6h10.1
	l0.1-0.4c0.6-2.9,1.9-6,9.2-6c8.2,0,9.3,3.9,9.3,7.3v1.4h-9.1c-14.8,0-22,4.5-22,13.9c0,6.8,5.1,13.6,16.5,13.6c7,0,12-1.9,14.8-5.5
	c0,1.3,0.2,2.7,0.4,4l0.1,0.4h9.6l-0.1-0.6C200.4,279.7,200.3,276.3,200.3,272.9L200.3,272.9z M169.2,270.8c0-4.4,3.6-6.3,12.1-6.3
	c4.8,0,7.5,0,8.9,0v0.9c0,7.7-4.2,11.6-12.5,11.6C172.3,277,169.2,274.7,169.2,270.8z M242.4,270.1c-0.9,2.1-2.4,4-4.4,5.2
	c-2,1.2-4.3,1.7-6.6,1.5c-7.4,0-12.2-5.4-12.2-13.9c0-8.4,4.8-13.8,12.2-13.8c2.3-0.2,4.7,0.4,6.7,1.6c2,1.3,3.5,3.1,4.2,5.3
	l0.1,0.4h10l-0.1-0.6c-0.9-5.5-6.2-14.8-20.8-14.8c-3-0.1-6,0.4-8.7,1.4c-2.8,1.1-5.3,2.7-7.4,4.8c-2.1,2.1-3.8,4.5-4.9,7.3
	c-1.1,2.7-1.6,5.7-1.6,8.6c0,13.3,8.8,21.9,22.5,21.9c10.8,0,18.7-5.4,21.1-14.5l0.2-0.7h-10.1L242.4,270.1z M280.2,241
	C267.1,241,258,250,258,263c0,10.9,6.9,21.9,22.4,21.9c14.3,0,19.4-8.3,21.2-13.2l0.3-0.7h-10.2l-0.2,0.3c-2.2,3.9-5.5,5.6-10.8,5.6
	c-3.2,0.1-6.2-1-8.6-3.1c-2.3-2.1-3.7-5-3.9-8.2h34v-2.8C302.2,252.7,296.4,241,280.2,241z M280.1,248.8c9,0,11.2,5.8,11.6,9.7
	h-23.3C269.3,252.3,273.5,248.8,280.1,248.8z M320.7,222.8h-10.2v60.9h10.2V222.8z M337.3,223c-1,0-2,0.3-2.9,0.9
	c-0.8,0.6-1.5,1.4-1.9,2.3c-0.8,1.9-0.4,4.1,1.1,5.6c1.5,1.5,3.7,1.9,5.6,1.1c0.9-0.4,1.7-1,2.3-1.9c1.4-2,1.1-4.7-0.6-6.4
	C340,223.5,338.7,223,337.3,223z M342.5,242.1h-10.2v41.7h10.2L342.5,242.1L342.5,242.1z M403.9,250v-8h-10.4v-12.8h-10.2v12.8h-16
	V238c0-5.8,1.4-7.5,6.1-7.5c1.1,0,2.2,0.1,3.3,0.3l0.7,0.2v-8.1l-0.4-0.1c-1.7-0.4-3.4-0.5-5.2-0.5c-9.6,0-14.7,5.3-14.7,15.5v4.4
	h-7.5v8h7.5v33.7h10.2V250h16v21.7c0,8.8,3.5,12.4,12.1,12.4c2.4,0.1,4.7-0.2,7-0.8l0.4-0.1v-7.5l-0.7,0.1c-1.2,0.2-2.5,0.3-3.8,0.3
	c-3.7,0-4.8-1.3-4.8-5.7V250H403.9z M503.4,176.5c-5-10.2-13.6-18.3-24.1-22.8c-10.5-4.5-22.4-5.1-33.3-1.7
	c-10.9,3.4-20.3,10.5-26.3,20.2c-6,9.6-8.4,21.1-6.5,32.3c2.3,14.1,96.8-0.3,94.4-15.1C506.8,184.9,505.4,180.5,503.4,176.5
	L503.4,176.5z"/>
</svg>
